<svg width="213" height="30" viewBox="0 0 213 30" fill="none" xmlns="http://www.w3.org/2000/svg">
<g clip-path="url(#clip0_1016_362)">
<path d="M26.8533 0.0830078H2.41299C1.35664 0.0830078 0.5 0.939643 0.5 1.99599V26.4363C0.5 27.4927 1.35664 28.3493 2.41299 28.3493H26.8533C27.9097 28.3493 28.7663 27.4927 28.7663 26.4363V1.99599C28.7663 0.939643 27.9097 0.0830078 26.8533 0.0830078ZM25.8968 25.4798H3.36948L25.8968 2.95249V25.4798Z" fill="black"/>
<path d="M50.6038 12.8266H41.4337V4.90723H38.2383V24.3585H41.4337V15.7443H50.6038V24.3585H53.7993V4.90723H50.6038V12.8266Z" fill="black"/>
<path d="M63.0511 19.7104L59.6337 11.0205H56.2715L61.3424 23.0176L57.9939 29.9162H61.3845L63.8572 24.4979L70.0542 11.0205H66.6636L63.0511 19.7104Z" fill="black"/>
<path d="M82.1832 11.674C81.2107 11.0535 80.1226 10.7432 78.9185 10.7432C77.9176 10.7432 77.0197 10.9609 76.2231 11.3959C75.6837 11.6909 75.2203 12.0604 74.8339 12.5039V11.0205H71.7773V29.9159H74.8339V22.8994C75.2123 23.3321 75.6657 23.6941 76.1956 23.9833C76.9921 24.4187 77.8997 24.636 78.9189 24.636C80.1229 24.636 81.211 24.3307 82.1836 23.7193C83.1562 23.1079 83.9252 22.2792 84.4899 21.2321C85.055 20.1857 85.3377 19.0138 85.3377 17.7168C85.3377 16.4198 85.055 15.2207 84.4899 14.1739C83.9248 13.1275 83.1562 12.2938 82.1836 11.6733L82.1832 11.674ZM81.7111 19.8015C81.3867 20.4129 80.9425 20.8896 80.3774 21.2325C79.8123 21.5753 79.1596 21.7467 78.4185 21.7467C77.6774 21.7467 77.0197 21.5753 76.4454 21.2325C75.8711 20.8896 75.4266 20.4129 75.1117 19.8015C74.7964 19.1901 74.6396 18.4862 74.6396 17.6896C74.6396 16.893 74.7968 16.1894 75.1117 15.578C75.4269 14.9667 75.8711 14.4896 76.4454 14.1468C77.0197 13.8039 77.6774 13.6325 78.4185 13.6325C79.1596 13.6325 79.8123 13.8039 80.3774 14.1468C80.9425 14.4896 81.387 14.9667 81.7111 15.578C82.0355 16.1894 82.1978 16.893 82.1978 17.6896C82.1978 18.4862 82.0355 19.1901 81.7111 19.8015Z" fill="black"/>
<path d="M97.6193 11.6603C96.5629 11.0489 95.3776 10.7432 94.0626 10.7432C92.7477 10.7432 91.5895 11.0535 90.5336 11.674C89.4772 12.2946 88.6393 13.1233 88.0188 14.1609C87.3978 15.1985 87.0879 16.3658 87.0879 17.6621C87.0879 18.9583 87.3978 20.1352 88.0188 21.1911C88.6393 22.2475 89.4776 23.0854 90.5336 23.7059C91.5891 24.3265 92.7656 24.6364 94.0626 24.6364C95.3596 24.6364 96.5633 24.3265 97.6193 23.7059C98.6748 23.0854 99.5131 22.2475 100.134 21.1911C100.754 20.1355 101.065 18.9591 101.065 17.6621C101.065 16.365 100.754 15.1939 100.134 14.1468C99.5131 13.1003 98.6748 12.2713 97.6193 11.6599V11.6603ZM97.4383 19.7461C97.1139 20.3575 96.6601 20.8342 96.0766 21.177C95.4932 21.5198 94.8217 21.6908 94.0626 21.6908C93.3036 21.6908 92.6589 21.5198 92.0754 21.177C91.492 20.8342 91.0382 20.3575 90.7138 19.7461C90.3893 19.1347 90.2279 18.4399 90.2279 17.6617C90.2279 16.8835 90.3897 16.1982 90.7138 15.6056C91.0378 15.013 91.492 14.545 92.0754 14.2022C92.6589 13.8594 93.3215 13.688 94.0626 13.688C94.8037 13.688 95.4886 13.8594 96.0629 14.2022C96.6371 14.545 97.0909 15.0126 97.4245 15.6056C97.7582 16.1986 97.925 16.8835 97.925 17.6617C97.925 18.4399 97.7627 19.1347 97.4383 19.7461Z" fill="black"/>
<path d="M108.178 5.46387H105.121V11.0211H101.926V13.7999H105.121V24.3592H108.178V13.7999H111.374V11.0211H108.178V5.46387Z" fill="black"/>
<path d="M122.419 11.6048C121.465 11.0305 120.367 10.7432 119.126 10.7432C117.885 10.7432 116.685 11.0489 115.639 11.6603C114.592 12.2716 113.763 13.1003 113.151 14.1471C112.54 15.1939 112.234 16.375 112.234 17.69C112.234 19.005 112.544 20.191 113.165 21.2466C113.786 22.303 114.629 23.1317 115.694 23.7339C116.759 24.3361 117.958 24.6368 119.292 24.6368C120.329 24.6368 121.311 24.4424 122.238 24.0533C123.164 23.6642 123.951 23.0903 124.6 22.3309L122.654 20.3578C122.247 20.8208 121.751 21.1728 121.168 21.4134C120.584 21.6545 119.95 21.7746 119.265 21.7746C118.468 21.7746 117.764 21.6036 117.153 21.2608C116.541 20.918 116.069 20.4317 115.736 19.8015C115.576 19.5008 115.455 19.1764 115.372 18.829H125.322C125.378 18.5512 125.419 18.2968 125.447 18.0649C125.475 17.8335 125.489 17.6066 125.489 17.3843C125.489 16.1064 125.216 14.967 124.669 13.9665C124.122 12.9661 123.372 12.1791 122.419 11.6048ZM115.708 15.4529C116.023 14.8507 116.467 14.3832 117.041 14.0496C117.616 13.7159 118.292 13.5491 119.07 13.5491C119.848 13.5491 120.436 13.6976 120.946 13.9941C121.455 14.2906 121.849 14.7168 122.127 15.272C122.283 15.5834 122.4 15.935 122.481 16.3276H115.38C115.458 16.0127 115.567 15.7211 115.708 15.4526V15.4529Z" fill="black"/>
<path d="M137.688 11.5072C136.91 10.998 136.021 10.7432 135.02 10.7432C134.02 10.7432 133.154 10.9704 132.367 11.4242C131.854 11.7196 131.414 12.0865 131.047 12.5234V11.0209H127.99V24.359H131.047V16.6619C131.047 16.0693 131.176 15.5409 131.436 15.078C131.695 14.615 132.056 14.2539 132.519 13.9941C132.982 13.7351 133.51 13.605 134.104 13.605C134.993 13.605 135.719 13.8923 136.285 14.4666C136.85 15.0409 137.132 15.7728 137.132 16.6616V24.3587H140.189V15.9943C140.189 15.1239 139.967 14.2856 139.522 13.4799C139.078 12.6741 138.467 12.0164 137.688 11.5068L137.688 11.5072Z" fill="black"/>
<path d="M151.582 18.6346C151.582 19.6163 151.346 20.3712 150.874 20.8992C150.401 21.4272 149.72 21.6911 148.831 21.6911C148.257 21.6911 147.762 21.571 147.345 21.3304C146.928 21.0897 146.613 20.7423 146.4 20.2885C146.186 19.8348 146.08 19.2835 146.08 18.635V11.0209H143.023V18.7738C143.023 19.9224 143.269 20.9367 143.76 21.8163C144.25 22.6962 144.936 23.3868 145.816 23.8865C146.696 24.3862 147.701 24.6364 148.831 24.6364C149.961 24.6364 150.989 24.3908 151.86 23.9003C152.73 23.4094 153.411 22.7238 153.902 21.8442C154.393 20.9646 154.639 19.9408 154.639 18.7735V11.0205H151.582V18.6346H151.582Z" fill="black"/>
<path d="M160.779 13.8001C161.112 13.6149 161.584 13.522 162.196 13.522C162.844 13.522 163.418 13.6425 163.919 13.8831C164.419 14.1242 164.864 14.4853 165.253 14.9667L167.198 13.0215C166.641 12.2625 165.952 11.6928 165.128 11.3129C164.303 10.9329 163.354 10.7432 162.279 10.7432C161.26 10.7432 160.385 10.91 159.653 11.2436C158.921 11.5772 158.356 12.0494 157.958 12.6607C157.56 13.2721 157.361 14.004 157.361 14.8557C157.361 15.6523 157.528 16.3008 157.861 16.8008C158.195 17.3009 158.625 17.6946 159.154 17.9819C159.681 18.2692 160.237 18.4961 160.821 18.6625C161.404 18.8294 161.96 18.9916 162.488 19.1492C163.016 19.3068 163.446 19.4966 163.78 19.7189C164.114 19.9412 164.28 20.2557 164.28 20.6631C164.28 21.0706 164.104 21.3488 163.753 21.5527C163.401 21.7566 162.882 21.858 162.196 21.858C161.437 21.858 160.756 21.7241 160.154 21.4551C159.552 21.1865 159.019 20.7837 158.556 20.2465L156.611 22.1916C157.037 22.7104 157.537 23.1504 158.111 23.5116C158.686 23.8728 159.316 24.1505 160.001 24.3453C160.686 24.5392 161.4 24.6368 162.141 24.6368C163.697 24.6368 164.929 24.2573 165.837 23.4978C166.744 22.7384 167.199 21.7103 167.199 20.4133C167.199 19.5984 167.032 18.9361 166.698 18.4265C166.364 17.9172 165.933 17.5098 165.406 17.2041C164.878 16.8984 164.322 16.6574 163.738 16.4814C163.155 16.3057 162.599 16.1435 162.071 15.9955C161.543 15.847 161.113 15.671 160.779 15.4675C160.445 15.2636 160.279 14.9762 160.279 14.6059C160.279 14.2355 160.445 13.9857 160.779 13.8005L160.779 13.8001Z" fill="black"/>
<path d="M179.104 11.6048C178.15 11.0305 177.052 10.7432 175.811 10.7432C174.57 10.7432 173.371 11.0489 172.324 11.6603C171.277 12.2716 170.448 13.1003 169.837 14.1471C169.225 15.1939 168.92 16.375 168.92 17.69C168.92 19.005 169.23 20.191 169.851 21.2466C170.471 22.303 171.314 23.1317 172.379 23.7339C173.445 24.3361 174.644 24.6368 175.978 24.6368C177.015 24.6368 177.997 24.4424 178.923 24.0533C179.849 23.6642 180.637 23.0903 181.285 22.3309L179.34 20.3578C178.932 20.8208 178.437 21.1728 177.853 21.4134C177.27 21.6545 176.635 21.7746 175.95 21.7746C175.154 21.7746 174.45 21.6036 173.838 21.2608C173.227 20.918 172.755 20.4317 172.421 19.8015C172.262 19.5008 172.141 19.1764 172.058 18.829H182.008C182.063 18.5512 182.105 18.2968 182.133 18.0649C182.16 17.8335 182.175 17.6066 182.175 17.3843C182.175 16.1064 181.901 14.967 181.355 13.9665C180.808 12.9661 180.058 12.1791 179.104 11.6048ZM172.394 15.4529C172.709 14.8507 173.153 14.3832 173.727 14.0496C174.302 13.7159 174.978 13.5491 175.756 13.5491C176.534 13.5491 177.122 13.6976 177.632 13.9941C178.141 14.2906 178.535 14.7168 178.813 15.272C178.968 15.5834 179.086 15.935 179.167 16.3276H172.066C172.144 16.0127 172.253 15.7211 172.394 15.4526V15.4529Z" fill="black"/>
<path d="M196.485 4.90723L188.482 24.3585H191.873L193.368 20.6071H201.728L203.21 24.3585H206.655L198.708 4.90723H196.485ZM194.475 17.8287L197.566 10.0738L200.63 17.8287H194.475Z" fill="black"/>
<path d="M212.463 4.90723H209.268V24.3585H212.463V4.90723Z" fill="black"/>
</g>
<defs>
<clipPath id="clip0_1016_362">
<rect width="212" height="29.8334" fill="white" transform="translate(0.5 0.0830078)"/>
</clipPath>
</defs>
</svg>
